<?xml version="1.0" standalone="no"?>
<!DOCTYPE svg PUBLIC "-//W3C//DTD SVG 20010904//EN"
 "http://www.w3.org/TR/2001/REC-SVG-20010904/DTD/svg10.dtd">
<svg version="1.0" xmlns="http://www.w3.org/2000/svg"
 width="500.000000pt" height="500.000000pt" viewBox="0 0 500.000000 500.000000"
 preserveAspectRatio="xMidYMid meet">

<g transform="translate(0.000000,500.000000) scale(0.100000,-0.100000)"
fill="#000000" stroke="none">
<path d="M412 4650 c-119 -18 -241 -110 -298 -225 l-29 -60 0 -1045 0 -1045
27 -57 c50 -108 140 -191 236 -219 23 -7 42 -15 42 -18 0 -3 -16 -170 -36
-370 -36 -363 -36 -363 -17 -390 14 -17 31 -27 54 -29 31 -3 62 18 304 197
149 110 273 201 276 201 4 0 8 -38 11 -84 8 -153 89 -276 227 -343 l56 -28
1120 -3 1120 -2 532 -395 c564 -419 562 -418 614 -376 29 23 29 30 -14 450
-30 288 -32 324 -18 328 152 51 260 166 291 310 7 32 10 387 8 1048 l-3 1000
-23 55 c-33 76 -77 133 -142 179 -100 71 -119 74 -447 79 l-292 4 -3 276 -3
277 -29 60 c-59 119 -178 207 -307 225 -77 12 -3180 11 -3257 0z m3317 -175
c53 -26 92 -68 119 -124 16 -33 17 -113 17 -1036 l0 -1000 -29 -53 c-16 -28
-45 -64 -64 -78 -72 -56 -35 -54 -1230 -54 l-1104 0 -469 -346 c-259 -191
-472 -344 -476 -341 -3 3 9 146 26 318 38 377 43 354 -84 374 -77 13 -142 61
-181 135 -18 33 -19 81 -22 1029 -3 1107 -6 1053 65 1126 20 21 55 46 77 56
39 18 106 19 1674 19 l1633 0 48 -25z m891 -846 c55 -25 95 -62 123 -114 l22
-40 0 -1005 0 -1005 -31 -55 c-37 -65 -90 -105 -159 -121 -87 -19 -98 -23
-116 -49 -17 -24 -17 -34 16 -339 19 -173 33 -316 32 -318 -2 -1 -209 150
-461 337 -251 187 -465 344 -476 350 -12 7 -398 10 -1132 10 -1098 0 -1114 1
-1158 21 -56 25 -95 62 -123 114 -18 34 -22 60 -24 170 l-3 130 177 130 178
130 1120 5 1120 5 60 29 c72 35 163 124 192 186 41 90 43 125 43 800 l0 650
278 0 c257 0 280 -2 322 -21z"/>
<path d="M1850 3756 c-586 -6 -1070 -14 -1076 -18 -6 -4 -17 -21 -24 -38 -15
-37 0 -83 33 -96 13 -5 257 -6 567 -3 300 4 850 7 1223 8 l679 1 30 30 c25 26
29 36 24 63 -12 62 -28 67 -220 65 -94 -1 -650 -6 -1236 -12z"/>
<path d="M2235 2999 c-500 -3 -1021 -7 -1156 -8 -225 -1 -249 -3 -270 -20 -35
-28 -32 -86 6 -118 27 -23 33 -25 114 -19 47 3 590 9 1206 12 l1119 7 28 27
c36 36 35 64 -1 101 -26 26 -36 29 -83 27 -29 -1 -462 -5 -963 -9z"/>
</g>
</svg>
